<svg version="1.1" xmlns="http://www.w3.org/2000/svg" xmlns:xlink="http://www.w3.org/1999/xlink" x="0px" y="0px"
	 width="2000px" height="1500px">
<g id="block1">
	<polygon points="551.048,974.724 551.048,872.325 666.157,788.368 703.355,812.108 703.355,870.621 
		813.969,941.215 813.969,954.104 820.411,949.189 830.105,954.788 830.105,936.474 843.398,926.329 847.265,928.747 
		861.77,917.685 865.954,920.548 872.428,915.61 895.686,930.19 895.686,921.052 891.271,924.372 780.503,853.952 780.503,845.495 
		779.211,844.675 779.211,778.33 797.199,764.804 804.863,769.682 811.326,764.821 920.826,834.435 925.707,830.767 
		957.635,851.065 963.136,885.317 963.136,951.665 930.146,976.474 930.146,982.312 836.07,1067.044 838.732,1068.715 
		838.732,1075.226 825.169,1085.562 814.634,1078.962 814.634,1080.089 771.462,1119.223 	"/>
	<line x1="749.513" y1="999.29" x2="658.013" y2="862.79"/>
</g>
<g id="block2">
	<polygon points="811.326,764.821 920.826,834.435 925.707,830.767 953.847,848.659 972.333,834.996 
		972.333,846.721 977.302,849.888 977.302,856.604 971.554,852.938 959.398,862.055 962.155,879.218 1009.569,909.451 
		1047.827,873.54 1047.827,871.616 1082.806,839.947 1084.354,840.946 1212.913,724.151 1213.028,687.642 1156.733,651.469 
		1156.733,624.305 1103.188,589.658 1079.176,608.688 1039.555,583.065 1014.673,601.453 996.096,589.899 984.743,598.29 
		984.743,621.53 976.429,627.674 954.015,613.403 938.854,624.608 938.854,640.271 923.545,630.458 913.657,637.765 896.48,627.005 
		866.721,648.996 866.721,700.401 854.993,709.069 839.604,698.899 809.047,721.485 809.047,766.538 	"/>
	<line x1="1008.263" y1="731.54" x2="1008.263" y2="625.79"/>
</g>
<g id="block3">
	<polygon points="1156.733,647.197 1238.967,700.846 1344.072,609.626 1448.952,518.024 1448.952,499.739 
		1389.093,460.686 1389.093,436.304 1366.276,421.419 1356.359,428.358 1341.175,418.452 1341.175,417.233 1317.532,401.809 
		1308.71,408.241 1304.158,405.614 1304.158,401.042 1271.393,380.777 1226.855,413.421 1226.855,431.519 1211.319,421.265 
		1197.676,431.264 1197.676,453.409 1182.593,464.464 1182.593,474.261 1168.005,484.954 1168.005,490.062 1149.355,503.73 
		1146.102,501.419 1144.271,504.239 1121.399,489.394 1067.636,528.8 1067.636,589.069 1069.216,590.101 1060.473,596.591 
		1079.176,608.688 1103.188,589.658 1156.733,624.305 	"/>
	<line x1="1254.712" y1="532.79" x2="1254.712" y2="433.79"/>
</g>
</svg>
