<svg version="1.1" xmlns="http://www.w3.org/2000/svg" xmlns:xlink="http://www.w3.org/1999/xlink" width="3000px" height="1500px">
<g id="205chrystie">
	<polygon points="2031.492,930.461 2031.492,650.359 1940.148,640.742 1940.148,621.539 
		2080.508,635.684 2080.508,915.793"/>
	<line x1="2053.219" y1="782.602" x2="2053.219" y2="621.539"/>
</g>
<g id="203chrystie">
	<polygon points="1968.672,767.129 1940.148,764.422 1940.148,640.742 2031.492,650.359 
		2031.492,930.461 2005.68,938.184 2005.68,786.426 1968.664,782.602 "/>
	<line x1="2018.215" y1="782.602" x2="2018.215" y2="640.742"/>
</g>
<g id="201chrystie">
	<polygon points="1968.664,782.602 2005.68,786.426 2005.68,938.184 1968.637,949.277"/>
	<line x1="1987.156" y1="865.945" x2="1987.156" y2="777.438"/>
</g>
<g id="199chrystie">
	<polygon points="1940.148,764.422 1968.672,767.129 1968.637,949.277 1940.148,957.805"/>
	<line x1="1954.414" y1="861.109" x2="1954.414" y2="755.789"/>
</g>
<g id="195chrystie">
	<polygon points="1867.277,674.93 1564.168,644.906 1496.801,664.367 1496.801,743.508 
		1415.672,734.395 1415.672,521.652 1482.414,501.688 1940.148,546.539 1940.148,958.711 1867.277,980.52 "/>
	<line x1="1908.039" y1="803.148" x2="1908.039" y2="537.375"/>
</g>
<g id="191chrystie">
	<polygon points="1801.008,822.004 1763.527,818.266 1763.527,730.793 1599.234,714.5 
		1561.992,725.637 1561.992,790.469 1496.801,784.277 1496.801,664.367 1564.168,644.906 1867.277,674.93 1867.277,980.52 
		1801.008,1000.348"/>
	<line x1="1830.82" y1="845.367" x2="1830.82" y2="666.207"/>
</g>
<g id="189chrystie">
	<polygon points="1763.527,818.266 1801.008,822.004 1801.008,1000.348 1763.527,1011.562"/>
	<line x1="1782.27" y1="912.121" x2="1782.27" y2="809.426"/>
</g>
<g id="187chrystie">
	<polygon points="1561.992,725.637 1599.234,714.5 1763.527,730.793 1763.527,1011.562 
		1726.391,1022.672 1726.391,882.016 1651.156,874.582 1651.156,798.926 1561.992,790.469"/>
	<line x1="1745.355" y1="870.961" x2="1745.355" y2="720.777"/>
</g>
<g id="183chrystie">
	<polygon points="1726.391,882.016 1726.391,1022.672 1651.156,1045.188 1651.156,874.582 	"/>
	<line x1="1688.777" y1="964.875" x2="1688.777" y2="874.582"/>
</g>
<g id="181chrystie">
	<polygon points="1397.629,785.52 1424.648,777.438 1651.156,798.926 1651.156,1045.188 
		1623.359,1053.508 1623.359,922.027 1450.512,905.324 1450.512,833.809 1397.629,828.43"/>
	<line x1="1637.238" y1="925.617" x2="1637.238" y2="789.465"/>
</g>
<g id="179chrystie">
	<polygon points="1450.512,1078.645 1450.512,905.324 1623.359,922.027 1623.359,1053.508 
		1516.977,1085.336"/>
	<line x1="1570.316" y1="1004.133" x2="1570.316" y2="925.617"/>
</g>
<g id="177chrystie">
	<polygon points="1318.508,1009.855 1254.492,1003.379 1254.492,866.465 1387.609,827.414 
		1450.512,833.809 1450.512,1107.688 1318.508,1146.812"/>
	<line x1="1397.629" y1="987.117" x2="1397.629" y2="837.125"/>
</g>
<g id="175chrystie">
	<polygon points="1283.836,1020.129 1207.23,1012.91 1185.281,1019.719 1185.281,1039.938 
		1168.266,1038.156 1168.266,1007.988 1155.52,1006.66 1187.844,996.641 1318.508,1009.855 1318.508,1146.812 1283.836,1157.09"/>
	<line x1="1302.609" y1="1078.258" x2="1302.609" y2="1000.348"/>
</g>
<g id="173chrystie">
	<polygon points="1185.281,1019.719 1207.23,1012.91 1283.836,1020.129 1283.836,1157.09 
		1257.859,1164.789 1257.855,1049.18 1204.078,1043.164 1204.078,1041.895 1185.281,1039.938"/>
	<line x1="1270.691" y1="1088.852" x2="1270.691" y2="1012.91"/>
</g>
<g id="169chrystie">
	<polygon points="1204.078,1043.164 1257.855,1049.18 1257.859,1164.789 1204.074,1180.734"/>
	<line x1="1230.969" y1="1110.062" x2="1230.969" y2="1039.449"/>
</g>
<g id="165chrystie">
	<polygon points="1168.266,1038.156 1204.078,1041.895 1204.074,1180.734 1168.266,1191.348"/>
	<line x1="1186.176" y1="1114.75" x2="1186.176" y2="1034.977"/>
</g>
<g id="163chrystie">
	<polygon points="1131.226,1004.133 1168.266,1007.988 1168.266,1191.348 1131.226,1202.324"/>
	<line x1="1149.742" y1="1103.227" x2="1149.742" y2="1000.348"/>
</g>
<g id="159chrystie">
	<polygon points="876.609,905.48 911.578,895.684 1131.226,918.34 1131.226,1202.324 
		1097.742,1212.258 1097.742,1028.891 1059.598,1024.961 1059.598,955.672 933.695,943.562 876.609,960.023"/>
	<line x1="1118.305" y1="1078.258" x2="1118.305" y2="910.23"/>
</g>
<g id="157chrystie">
	<polygon points="1059.598,1024.961 1097.742,1028.891 1097.742,1212.258 1059.598,1223.562"/>
	<line x1="1078.672" y1="1124.266" x2="1078.672" y2="1021.68"/>
</g>

<g id="155chrystie">
		<polygon points="950.242,1255.984 950.242,1172.533 874.166,1165.248 874.078,1109.609 821.883,1104.617 821.883,976.5 
		933.695,943.562 1059.598,955.672 1059.598,1223.562 953.333,1254.833 "/>
		<line x1="1024.609" y1="1110.062" x2="1024.609" y2="959.883"/>
</g>


<g id="18delance
	y">
	<polygon points="808.422,1184.604 874.078,1165.248 950.242,1172.533 950.242,1255.984 
		883.695,1275.703 808.422,1268.047"/>
	<line x1="842.371" y1="1257.303" x2="842.371" y2="1179.16"/>
</g>
<g id="14delancey">
	<polygon points="874.078,1109.609 874.166,1165.248 808.422,1184.604 808.422,1268.047 
		757.312,1262.848 757.312,1123.758 821.883,1104.617 	"/>
	<line x1="784.71" y1="1248.258" x2="784.71" y2="1113.178"/>
</g>
<g id="12delancey">
	<polygon points="757.312,1123.758 757.312,1262.848 714.934,1258.535 714.934,1119.738 
		780.383,1100.57 821.883,1104.906"/>
	<line x1="737.776" y1="1248.258" x2="737.776" y2="1113.178"/>
</g>
<g id="10delancey">
	<polygon points="714.934,1119.738 714.934,1258.535 615.672,1248.438 615.672,1089.871 
		707.078,1064.164 803.215,1074.223 803.215,1102.747 780.383,1100.57"/>
	<line x1="663.211" y1="1215.86" x2="663.211" y2="1078.833"/>
</g>
<g id="6delancey">
	<polygon points="615.672,1248.438 615.672,1158.395 580.438,1154.808 525.457,1172.05 
		525.457,1239.258"/>
	<line x1="570.562" y1="1235.591" x2="570.562" y2="1161.165"/>
</g>
<g id="183bowery">
	<polygon points="288.762,1151.582 316.801,1141.328 547.506,1165.135 525.457,1172.239 
		525.457,1239.258 288.762,1215.176"/>
	<line x1="402.715" y1="1218.926" x2="402.715" y2="1148.489"/>
</g>
<g id="93houston">
	<polygon points="1932.383,518.867 1895.812,533 1741.027,517.715 1741.027,474.855 
		1838.918,437.324 2270.109,481.438 2270.109,249.547 2355.766,224.297 2711.238,260.66 2711.238,725.984 2527.453,780.152 
		2527.453,314.836 2380.926,300.305 2281.656,329.566 2281.656,541.066 1958.012,508.965"/>
	<line x1="2626.727" y1="537.375" x2="2626.727" y2="246.105"/>
</g>
<g id="229chrystie">
	<polygon points="2110.82,777.945 2110.82,578.523 2110.82,560.227 2096.586,558.812 
		2096.586,552.824 1895.812,533 1958.012,508.965 2281.656,541.066 2281.656,329.566 2380.926,300.305 2527.453,314.836 
		2527.453,780.152 2428.172,809.426"/>
	<line x1="2474.348" y1="559.117" x2="2474.348" y2="305.828"/>
</g>
</svg>