<svg version="1.1"
	 xmlns:svg="http://www.w3.org/2000/svg"
	 xmlns="http://www.w3.org/2000/svg" xmlns:xlink="http://www.w3.org/1999/xlink" width="4000px" height="1500px"
	 >
<g id="18delancey">
	<polygon points="3795.691,1102.758 3795.691,1002.102 3839.793,1006.59 3839.793,1089.68 	"/>
	<line x1="3817.742" y1="1071.676" x2="3817.742" y2="1003.668"/>
</g>
<g id="16delancey">
	<polygon points="3795.691,964.266 3739.975,959.068 3739.975,970.471 3765.746,973.137 
		3765.746,1111.629 3795.691,1102.758 	"/>
	<line x1="3780.375" y1="1071.676" x2="3780.375" y2="962.418"/>
</g>
<g id="14delancey">
	<polygon points="3740.926,970.414 3740.926,1118.984 3765.746,1111.629 3765.746,973.137 	"/>
	<line x1="3752.027" y1="1075.52" x2="3752.027" y2="972.016"/>
</g>
<g id="12delancey">
	<polygon points="3740.926,961.832 3591.455,946.113 3585.009,947.972 3585.16,1059.794 
		3682.777,1069.828 3682.777,1136.223 3740.926,1118.984 	"/>
	<line x1="3711.848" y1="1101.59" x2="3711.848" y2="957.563"/>
</g>
<g id="10delancey">
	<polygon points="3548.383,1071.174 3548.383,1090.864 3572.816,1083.11 3629.926,1088.646 
		3629.926,1151.887 3682.777,1136.223 3682.777,1069.828 3586.184,1059.477 	"/>
	
		<line x1="3654.306" y1="1126.253" x2="3654.306" y2="1067.155"/>
</g>
<g id="6delancey">
	<polygon points="3491.258,1192.992 3629.926,1151.887 3629.926,1088.972 3572.816,1083.437 
		3432.223,1125.21 3432.223,1188.121 	"/>
	
		<line x1="3464.223" y1="1151.887" x2="3464.223" y2="1098.586"/>
</g>
<g id="185bowery">
	<polygon points="3432.223,1188.121 3432.223,1124.884 3548.383,1090.864 3548.383,1029.461 
		3484.012,1023.348 3369.527,1058.309 3369.527,1182.945 	"/>
	
		<line x1="3401.504" y1="1151.027" x2="3401.504" y2="1052.43"/>
</g>
<g id="187bowery">
	<polygon points="3369.527,1182.945 3369.527,1058.309 3470.012,1027.797 3470.012,986.246 
		3407.328,980.297 3304.098,1011.367 3304.098,1177.551 	"/>
	
		<line x1="3336.207" y1="1137.902" x2="3336.207" y2="1007.313"/>
</g>
<g id="189bowery">
	<polygon points="3304.098,1177.551 3304.098,1041.867 3238.789,1061.375 3238.789,1172.164 	"/>
	
		<line x1="3271.441" y1="1151.027" x2="3271.441" y2="1063.254"/>
</g>
<g id="191bowery">
	<polygon points="3238.789,1172.164 3238.789,1061.375 3304.098,1041.867 3304.098,1011.367 
		3358.613,994.953 3358.613,978.641 3287.355,971.195 3248.207,987.566 3248.207,1045.051 3174.047,1067.109 3174.047,1166.824 	"/>
	
		<line x1="3209.059" y1="1137.902" x2="3209.059" y2="1063.254"/>
</g>
<g id="193bowery">
	<polygon points="3174.047,1166.824 3174.047,1067.109 3248.207,1044.871 3248.207,1006.086 
		3248.207,987.566 3253.164,985.492 3239.852,984.211 3109.012,1022.969 3109.012,1161.457 	"/>
	
		<line x1="3139.465" y1="1128.121" x2="3139.465" y2="1017.625"/>
</g>
<g id="195bowery">
	<polygon points="3109.012,1022.969 3239.852,984.211 3239.852,939.344 3251.328,935.727 
		3251.328,688.532 3190.488,682.239 3089.066,711.899 3089.066,944.559 3067.895,950.75 3067.895,995.066 3041.25,1002.297 
		3041.25,1155.871 3109.012,1161.457 	"/>
	
		<line x1="3073.316" y1="1124.883" x2="3073.316" y2="996.313"/>
</g>
<g id="197bowery">
	<polygon points="3041.25,1155.871 3041.25,1002.297 3067.895,995.066 3067.895,950.75 
		3089.066,944.559 3089.066,910.695 2982.527,943.293 2982.527,1151.027 	"/>
	
		<line x1="3012.316" y1="1128.121" x2="3012.316" y2="936.867"/>
</g>
<g id="199bowery">
	<polygon points="2982.527,1151.027 2982.527,943.293 3089.066,910.695 3089.066,724.079 
		2926.68,707.997 2840.816,734.128 2840.816,1028.234 2726.918,1060.699 2726.918,1129.938 	"/>
	
		<line x1="2842.211" y1="1114.281" x2="2842.211" y2="1047.227"/>
</g>
<g id="207bowery">
	<polygon points="2726.918,1129.938 2726.918,1060.699 2835.348,1029.93 2835.348,899.75 
		2764.934,892.898 2665.621,925.461 2665.621,1124.883 	"/>
	
		<line x1="2697.027" y1="1085.496" x2="2697.027" y2="921.848"/>
</g>
<g id="209bowery">
	<polygon points="2589.934,981.422 2589.934,952.453 2665.621,929.66 2665.621,1124.883 
		2589.934,1118.645 	"/>
	<line x1="2622.27" y1="1088.984" x2="2622.27" y2="941.391"/>
</g>
<g id="211bowery">
	<polygon points="2589.934,1118.645 2537.016,1114.281 2537.016,1014.563 2589.934,996.313 	"/>
	
		<line x1="2563.48" y1="1094.461" x2="2563.48" y2="1007.313"/>
</g>
<g id="213bowery">
	<polygon points="2474.57,1009.414 2474.57,1109.125 2537.016,1114.281 2537.016,1014.563 
		2589.934,996.313 2589.934,981.422 2573.215,980.172 	"/>
	<line x1="2505.434" y1="1088.984" x2="2505.434" y2="1002"/>
</g>
<g id="215bowery">
	<polygon points="2346.371,1098.586 2474.57,1060.219 2474.57,1009.414 2475.098,1009.258 
		2474.895,894.367 2416.504,888.672 2293.617,928.352 2293.816,1094.461 	"/>
	
		<line x1="2318.145" y1="1062.605" x2="2318.145" y2="919.23"/>
</g>
<g id="217bowery">
	<polygon points="2293.816,1094.461 2293.617,928.352 2367.695,904.391 2336.457,901.52 
		2224.012,936.172 2224.012,1088.984 	"/>
	
		<line x1="2257.148" y1="1046.672" x2="2257.148" y2="927.68"/>
</g>
<g id="219bowery">
	<polygon points="2224.012,936.172 2328.957,903.973 2328.957,890.492 2225.035,880.934 
		2115.387,914.52 2115.387,1080.461 2224.012,1088.984 	"/>
	
		<line x1="2166.078" y1="1046.672" x2="2166.078" y2="901.52"/>
</g>
<g id="223bowery">
	<polygon points="2115.387,1080.461 2073.152,1077.156 2073.199,977.43 2115.387,963.594 	"/>
	<line x1="2094.27" y1="1057.477" x2="2094.27" y2="971.828"/>
</g>
<g id="225bowery">
	<polygon points="2073.152,1077.156 2073.199,977.43 2115.387,963.594 2115.387,914.52 
		2222.113,881.82 2222.113,747.925 2275.512,731.29 2275.512,687.438 2230.324,682.886 2230.324,674.821 2192.043,670.964 
		2047.836,716.864 2030.598,717.042 1964.828,736.29 1964.828,1068.66 	"/>
	
		<line x1="2011.441" y1="1022.027" x2="2011.441" y2="727.239"/>
</g>
<g id="227bowery">
	<polygon points="1964.828,1068.66 1964.828,874.996 1887.629,896.418 1887.629,1062.605 	"/>
	
		<line x1="1926.223" y1="1017.625" x2="1926.223" y2="888.602"/>
</g>
<g id="229bowery">
	<polygon points="1887.629,941.391 1829.543,958.336 1829.543,1058.047 1887.629,1062.605 	"/>
	<line x1="1858.59" y1="1023.199" x2="1858.59" y2="953.66"/>
</g>
<g id="231bowery">
	<polygon points="1964.828,874.996 1887.629,896.418 1887.629,941.391 1829.543,958.336 
		1829.543,1058.047 1701.521,1048.008 1701,848.543 1964.828,772.68 	"/>
	<line x1="1764.008" y1="987.59" x2="1764.008" y2="838.922"/>
</g>
<g id="235bowery">
	<polygon points="1701.521,1046.672 1701.521,848.586 1723.016,842.156 1817.965,813.742 
		1817.965,773.453 1797.109,771.398 1797.109,692.218 1769.738,689.524 1769.738,611.046 1763.285,610.415 1763.285,512.493 
		1640.254,500.391 1558.539,525.454 1558.539,620.856 1538.031,627.145 1538.031,670.308 1538.031,787.98 1555.949,789.391 
		1555.949,852.977 1544.854,856.375 1544.762,914.441 1513.371,924.063 1513.371,993.039 1523.879,993.863 1523.879,1032.68 	"/>
	<line x1="1604.207" y1="958.68" x2="1604.207" y2="513.316"/>
</g>
<g id="241bowery">
	<polygon points="1521.25,1033.543 1523.879,1032.68 1523.879,993.863 1513.371,993.039 
		1513.371,924.063 1544.762,914.441 1544.762,900.145 1450.453,928.508 1450.453,1028.227 	"/>
	<line x1="1485.65" y1="982.93" x2="1485.65" y2="919.23"/>
</g>
<g id="243bowery">
	<polygon points="1450.453,1028.227 1450.453,928.508 1544.762,900.145 1544.762,856.402 
		1544.854,856.375 1544.854,833.641 1479.164,827.133 1383.617,857.016 1383.617,1023.199 	"/>
	<line x1="1416.922" y1="982.93" x2="1416.922" y2="848.117"/>
</g>
<g id="245bowery">
	<polygon points="1323.77,1018.699 1383.617,1023.199 1383.617,934.008 1323.77,952.223 	"/>
	
		<line x1="1353.693" y1="995.285" x2="1353.693" y2="943.113"/>
</g>
<g id="2stanton">
	<polygon points="1090.727,1000.438 1247.52,990.898 1318.982,969.078 1318.982,960.637 
		1323.77,959.176 1323.77,952.223 1383.617,934.008 1383.617,857.016 1479.164,827.133 1481.914,827.406 1481.914,687.101 
		1538.031,670.308 1538.031,627.145 1543.176,625.563 1543.176,590.688 1532.693,589.649 1532.693,582.71 1455.703,575.109 
		1439.18,580.153 1413.082,577.579 1165.16,653.29 1165.16,663.929 1148.426,669.04 1096.604,671.183 1006.313,662.261 
		936.137,683.688 936.137,985.172 	"/>
	<line x1="1025.16" y1="942.875" x2="1025.16" y2="687.718"/>
</g>
<g id="255bowery">
	<polygon points="936.137,983.23 922.082,987.59 863.367,982.93 863.367,844.27 936.137,823.801 	
		"/>
	<line x1="891.996" y1="942.875" x2="891.996" y2="834.328"/>
</g>
<g id="257bowery">
	<polygon points="863.367,982.93 863.367,844.27 936.137,823.801 936.137,796.281 
		936.137,767.641 901.965,764.324 901.965,782.176 808.07,812.367 808.07,978.551 	"/>
	<line x1="835.293" y1="934.008" x2="835.293" y2="809.715"/>
</g>
<g id="259bowery">
	<polygon points="808.07,812.367 901.965,782.176 901.965,719.063 845.895,714.054 
		745.063,744.253 745.063,973.551 808.07,978.551 	"/>
	<line x1="776.875" y1="907.082" x2="776.875" y2="730.524"/>
</g>
<g id="261bowery">
	<polygon points="745.063,973.551 684.59,968.758 684.59,869.047 745.063,851.051 	"/>
	<line x1="714.828" y1="934.008" x2="714.828" y2="864.367"/>
</g>
<g id="263bowery">
	<polygon points="684.59,968.758 684.59,869.047 745.063,851.051 745.063,759.977 
		621.699,797.586 621.699,963.773 	"/>
	<line x1="654.02" y1="916.258" x2="654.02" y2="792.527"/>
</g>
<g id="265bowery">
	<polygon points="621.699,963.773 621.699,868.742 557.438,889.234 557.438,958.68 	"/>
	<line x1="589.564" y1="934.008" x2="589.564" y2="880.156"/>
</g>
<g id="267bowery">
	<polygon points="494.176,953.66 494.176,787.473 611.982,751.207 669.396,756.785 
		669.396,783.063 621.699,797.586 621.699,868.742 557.438,889.234 557.438,958.68 	"/>
	<line x1="527.008" y1="880.156" x2="527.008" y2="780.18"/>
</g>
<g id="269bowery">
	<polygon points="494.176,787.473 611.982,751.207 621.582,752.141 621.582,748.235 
		563.438,742.579 432.574,781.48 432.488,782.578 432.434,948.762 494.176,953.66 	"/>
	<line x1="462.637" y1="868.742" x2="462.637" y2="764.324"/>
</g>
<g id="273bowery">
	<polygon id="polygon14382" fill="#FF00FF" points="642.832,709.171 902.367,630.265 902.367,364.368 986.063,338.921 
		674.086,307.007 464.676,368.738 464.676,634.632 160.207,724.382 160.207,923.813 358.496,939.402 358.496,918.191 
		432.434,895.246 432.434,782.578 432.574,781.48 563.438,742.579 621.582,748.235 621.582,752.141 642.832,754.203 	"/>
	<line x1="280.77" y1="846.301" x2="280.77" y2="714.054"/>
</g>
<g id="229chrystie">
	<polygon points="642.832,754.203 669.396,756.785 669.396,783.063 745.063,759.977 
		745.063,744.253 845.895,714.054 901.965,719.063 901.965,764.324 936.137,767.641 936.137,683.688 1006.313,662.261 
		1096.604,671.183 1148.426,669.04 1154.594,667.161 1154.594,356.165 986.063,338.921 902.367,364.368 902.367,630.265 
		642.832,709.171 	"/>
</g>
</svg>
