<svg version="1.1" xmlns="http://www.w3.org/2000/svg" xmlns:xlink="http://www.w3.org/1999/xlink" x="0px" y="0px"
	 width="2000px" height="1500px">
<g id="block3">
	<polygon points="551.047,1023.336 701.504,1121.496 932.366,952.291 932.366,892.021 836.827,829.693 
		820.062,842.455 803.288,831.512 794.116,840.154 760.702,818.355 746.558,830.703 736.911,824.498 726.752,833.367 
		714.538,825.578 672.703,856.955 672.703,867.096 663.226,860.838 648.188,871.729 648.188,892.814 643.846,896.604 
		643.846,908.523 629.871,920.725 629.871,924.539 616.461,935.752 616.461,944.285 604.713,954.541 603.109,953.502 
		597.68,958.244 589.644,953.07 576.151,964.848 576.151,973.992 563.222,985.279 563.222,994.422 551.047,1005.051 	"/>
	<line x1="741.708" y1="949.703" x2="741.708" y2="859.703"/>
</g>
<g id="block2">
	<polygon points="1190.955,758.143 1190.955,708.477 1190.955,696.593 1066.471,616.047 1030.355,642.738 
		1022.701,637.857 1022.701,633.558 1004.109,621.977 1004.109,612.013 998.262,608.31 998.262,590.281 961.578,567.042 
		935.742,590.455 935.742,607.6 932.51,610.531 932.51,628.473 928.391,632.205 928.391,649.629 923.993,653.585 923.993,659.714 
		922.562,661.002 915.65,656.529 890.126,679.717 890.126,692.761 863.366,674.786 841.558,694.583 841.558,744.174 
		833.138,738.803 811.482,758.477 811.482,761.424 799.444,772.26 797.449,771.061 786.972,780.578 787.086,817.209 
		822.837,840.342 836.827,829.693 932.366,892.021 932.366,911.193 960.359,929.307 1133.279,801.662 1133.279,800.865 
		1190.955,758.234 	"/>
	<line x1="983.984" y1="748.174" x2="941.985" y2="675.205"/>
</g>
<g id="block1">
	<polygon points="1190.955,708.477 1190.955,696.593 1066.471,616.047 1049.578,628.533 1042.367,623.951 
		1036.865,589.697 1036.865,523.352 1072.979,496.194 1088.25,505.908 1092.75,501.855 1092.75,487.965 1105.406,476.569 
		1117.553,484.482 1117.553,479.519 1130.184,468.142 1143.088,476.371 1143.088,456.519 1168.195,433.907 1170.025,434.229 
		1185.369,444.459 1185.369,417.387 1228.539,378.253 1324.301,441.036 1324.301,430.759 1359.135,405.355 1448.953,464.24 
		1448.953,566.639 1333.846,650.592 1186.033,556.261 1186.033,550.688 1179.588,555.6 1169.895,550.002 1169.895,568.317 
		1156.604,578.461 1152.736,576.042 1150.611,577.268 1219.5,621.063 1219.5,629.52 1220.789,630.341 1220.789,696.688 
		1202.801,710.21 1195.139,705.334 	"/>
	<line x1="1228.484" y1="528.205" x2="1228.484" y2="442.705"/>
</g>
</svg>
