<svg version="1.1" xmlns="http://www.w3.org/2000/svg" xmlns:xlink="http://www.w3.org/1999/xlink" width="13331.756px" height="2200px">
<g id="273bowery">
	<polygon points="1491.321,1997.985 719.965,1997.985 719.67,1335.603 1491.321,1335.603 		"/>
	<line x1="1105.494" y1="1777.19" x2="1105.494" y2="1335.603"/>
</g>
<g id="269bowery">
	<rect x="1700.652" y="1446.003" width="222.015" height="551.982"/>
	<line x1="1811.659" y1="1832.391" x2="1811.659" y2="1446.003"/>
</g>
<g id="267bowery">
	<polygon points="1922.667,1446.003 1922.667,1997.985 2148.913,1997.985 2148.913,1446.003 		
		"/>
	<line x1="2035.79" y1="1777.191" x2="2035.79" y2="1446.003"/>
</g>
<g id="265bowery">
	<polygon points="2376.53,1750.735 2376.53,1997.985 2148.913,1997.985 2148.88,1750.043 		"/>
	<line x1="2262.704" y1="1874.359" x2="2262.704" y2="1750.735"/>
</g>
<g id="263bowery">
	<rect x="2376.53" y="1446.003" width="219.313" height="551.982"/>
	<line x1="2486.187" y1="1721.996" x2="2486.187" y2="1446.704"/>
</g>
<g id="261bowery">
	<polygon points="2595.758,1666.802 2595.844,1997.985 2826.913,1997.985 2826.913,1666.802 		"/>
	<line x1="2711.335" y1="1863.697" x2="2711.335" y2="1666.325"/>
</g>
<g id="259bowery">
	<rect x="2826.913" y="1335.603" width="219.034" height="661.725"/>
	<line x1="2936.431" y1="1749.181" x2="2936.431" y2="1335.603"/>
</g>
<g id="257bowery">
	<polygon points="3046.561,1446.003 3045.947,1997.327 3269.679,1997.327 3269.679,1446.003 		"/>
	<line x1="3157.814" y1="1721.665" x2="3157.814" y2="1446.703"/>
</g>
<g id="255bowery">
	<polygon points="3269.679,1555.745 3269.679,1997.327 3482.119,1997.327 3482.119,1556.403 		"/>
	<line x1="3375.9" y1="1776.246" x2="3375.9" y2="1556.074"/>
</g>
<g id="2stanton">
	<polygon points="3482.119,1004.417 4064.121,1004.417 4330.974,1436.06 4331.036,1997.985 
		3482.119,1997.985 		"/>
	<line x1="3773.12" y1="1721.995" x2="3773.12" y2="1004.417"/>
</g>
<g id="245bowery">
	<polygon points="4872.373,1777.185 5123.323,1777.185 5123.323,1997.985 4828.847,1998.165 
		4828.847,1810.344 		"/>
	<line x1="4997.848" y1="1887.584" x2="4997.848" y2="1777.185"/>
</g>
<g id="243bowery">
	<rect x="5123.323" y="1446.003" width="231.576" height="552.906"/>
	<line x1="5239.112" y1="1722.456" x2="5239.112" y2="1446.705"/>
</g>
<g id="241bowery">
	<polygon points="5587.752,1998.909 5354.899,1998.909 5354.899,1666.804 5587.146,1666.804 		"/>
	<line x1="5471.327" y1="1832.857" x2="5471.327" y2="1666.804"/>
</g>
<g id="235bowery">
	<polygon points="6177.793,1202.062 6177.793,939.066 6104.49,939.066 6103.673,333.954 
		5641.955,333.954 5632.677,333.954 5632.677,667.865 5584.358,667.865 5583.479,1202.062 5647.579,1202.062 5646.75,1632.636 
		5587.74,1632.763 5587.752,1998.909 6257.884,1997.985 6256.075,1202.062 		"/>
	<line x1="5918.897" y1="1582.188" x2="5918.897" y2="325.262"/>
</g>
<g id="231bowery">
	<polygon points="6704.34,1335.603 6257.884,1335.603 6260.354,1998.454 6704.34,1998.454 		"/>
	<line x1="6481.112" y1="1667.027" x2="6481.112" y2="1335.603"/>
</g>
<g id="229bowery">
	<rect x="6704.34" y="1666.804" width="246.961" height="331.65"/>
	<line x1="6827.82" y1="1832.629" x2="6827.82" y2="1666.804"/>
</g>
<g id="227bowery">
	<rect x="6951.301" y="1446.003" width="234.302" height="551.982"/>
	<line x1="7068.452" y1="1722.682" x2="7068.452" y2="1446.003"/>
</g>
<g id="225bowery">
	<polygon points="7185.603,1997.985 7528.844,1997.985 7528.844,894.017 7182.433,894.017 
		7182.433,1446.162 7185.631,1446.162 		"/>
	<line x1="7355.637" y1="1476.466" x2="7355.637" y2="894.017"/>
</g>
<g id="223bowery">
	<polygon points="7528.844,1997.985 7528.844,1666.804 7665.033,1666.804 7665.033,1997.714 		"/>
	<line x1="7596.938" y1="1832.26" x2="7596.938" y2="1666.804"/>
</g>
<g id="219bowery">
	<rect x="7666.135" y="1446.003" width="424.844" height="551.982"/>
	<line x1="7878.556" y1="1721.993" x2="7878.556" y2="1446.704"/>
</g>
<g id="217bowery">
	<polygon points="8090.979,1997.985 8090.979,1335.518 8377.975,1335.518 8377.824,1997.985 		"/>
	<line x1="8234.479" y1="1666.75" x2="8234.479" y2="1335.518"/>
</g>
<g id="215bowery">
	<polygon points="8378.083,1446.003 8378.083,1997.985 8577.641,1997.985 8577.641,1500.85 
		8552.373,1446.003 		"/>
	<line x1="8486.974" y1="1694.258" x2="8486.974" y2="1417.53"/>
</g>
<g id="213bowery">
	<polygon points="9014.5,1666.589 9234.185,1666.589 9234.185,1997.987 8977.29,1997.985 
		8977.29,1713.822 		"/>
	<line x1="9124.344" y1="1832.288" x2="9124.344" y2="1666.589"/>
</g>
<g id="211bowery">
	<rect x="9232.921" y="1681.953" width="190.689" height="316.034"/>
	<line x1="9328.267" y1="1839.97" x2="9328.267" y2="1681.953"/>
</g>
<g id="209bowery">
	<rect x="9423.61" y="1446.003" width="254.207" height="551.982"/>
	<line x1="9550.715" y1="1721.994" x2="9550.715" y2="1446.003"/>
</g>
<g id="207bowery">
	<rect x="9677.816" y="1225.218" width="255.929" height="772.768"/>
	<line x1="9805.782" y1="1611.601" x2="9805.782" y2="1225.218"/>
</g>
<g id="199bowery">
	<polygon points="10072,673 10844,673 10843.902,1997.985 9934,1998 9934,1802.022 10072,1803.343 		"/>
	<line x1="10508.217" y1="1576.138" x2="10508.217" y2="673"/>
</g>
<g id="197bowery">
	<rect x="10843.902" y="1004.094" width="231.957" height="993.892"/>
	<line x1="10959.878" y1="1501.041" x2="10959.878" y2="1004.094"/>
</g>
<g id="193bowery">
	<rect x="11301.631" y="1556.403" width="243.467" height="441.582"/>
	<line x1="11423.363" y1="1777.193" x2="11423.363" y2="1556.403"/>
</g>
<g id="195bowery">
	<rect x="11074" y="340" width="228" height="1658"/>
	<line x1="11186.508" y1="1168.824" x2="11186.508" y2="339.664"/>
</g>
<g id="191bowery">
	<polygon points="11544.833,1997.985 11763.82,1997.985 11763.82,1766.839 11765.106,1766.839 
		11765.106,1670.388 11545.367,1670.388 		"/>
	<line x1="11654.969" y1="1834.187" x2="11654.969" y2="1670.388"/>
</g>
<g id="189bowery">
	<rect x="11765.107" y="1556.403" width="225.384" height="441.582"/>
	<line x1="11877.798" y1="1777.195" x2="11877.798" y2="1556.403"/>
</g>
<g id="187bowery">
	<rect x="11990.49" y="1445.659" width="238.934" height="552.326"/>
	<line x1="12109.957" y1="1737.052" x2="12109.957" y2="1445.659"/>
</g>
<g id="185bowery">
	<rect x="12229.424" y="1556.403" width="240.348" height="441.582"/>
	<line x1="12349.595" y1="1777.195" x2="12349.595" y2="1556.403"/>
</g>
<g id="183bowery">
	<rect x="12469.771" y="1721.823" width="216.937" height="276.162"/>
	<line x1="12578.239" y1="1859.903" x2="12578.239" y2="1721.821"/>
</g>
</svg>
