<?xml version="1.0" encoding="utf-8"?>
<!-- Generator: Adobe Illustrator 16.0.0, SVG Export Plug-In . SVG Version: 6.00 Build 0)  -->
<!DOCTYPE svg PUBLIC "-//W3C//DTD SVG 1.1//EN" "http://www.w3.org/Graphics/SVG/1.1/DTD/svg11.dtd">
<svg version="1.1"
	 xmlns="http://www.w3.org/2000/svg" xmlns:xlink="http://www.w3.org/1999/xlink" width="3000px" height="1500px">
<g id="189bowery">
	<polygon points="2592.883,599.358 2562.133,596.252 2562.133,571.823 2531.242,568.717 
		2531.242,568.03 2499.047,564.752 2499.047,564.432 2623.91,576.94 2623.91,687.725 2592.883,699.069 	"/>
	<line x1="2608.398" y1="638.342" x2="2608.398" y2="569.706"/>
</g>
<g id="183bowery">
	<polygon points="2712.816,655.233 2712.816,572.135 2684.77,569.28 2684.77,665.483 	"/>
	<line x1="2698.793" y1="617.381" x2="2698.793" y2="564.432"/>
</g>
<g id="185bowery">
	<polygon points="2684.77,540.842 2684.77,665.483 2654.992,676.366 2654.992,537.776 	"/>
	<line x1="2669.883" y1="607.073" x2="2669.883" y2="525.116"/>
</g>
<g id="191bowery">
	<polygon points="2592.883,699.069 2592.883,599.358 2562.133,596.252 2562.133,710.311 	"/>
	<line x1="2577.504" y1="649.065" x2="2577.504" y2="590.225"/>
</g>
<g id="193bowery">
	<polygon points="2562.133,571.823 2562.133,710.311 2531.242,721.604 2531.242,568.717 	"/>
	<line x1="2546.684" y1="645.159" x2="2546.684" y2="561.213"/>
</g>
<g id="195bowery">
	<polygon points="2531.242,721.604 2531.242,568.03 2499.047,564.752 2499.047,733.373 	"/>
	<line x1="2515.145" y1="649.065" x2="2515.145" y2="552.893"/>
	<polygon points="2494.563,519.983 2458.805,516.342 2458.805,283.678 2287.207,266.342 
		2250.961,276.905 2250.961,335.643 2254.828,334.467 2405.344,349.377 2405.344,515.646 2494.563,525.116 	"/>
</g>
<g id="197bowery">
	<polygon points="2405.344,515.646 2405.344,667.905 2471.152,674.323 2471.152,743.572 
		2499.047,733.373 2499.047,525.643 	"/>
	<line x1="2483.387" y1="629.612" x2="2483.387" y2="511.213"/>
</g>
<g id="199bowery">
	<polygon points="2471.152,743.572 2471.152,674.323 2405.344,667.905 2405.344,349.377 
		2254.828,334.467 2152.883,366.545 2152.883,575.795 2172.531,569.706 2349.73,588.53 2349.73,787.955 	"/>
	<line x1="2405.344" y1="734.924" x2="2405.344" y2="675.643"/>
</g>
<g id="207bowery">
	<polygon points="2349.73,787.955 2349.73,588.53 2172.531,569.706 2133.09,581.932 
		2133.09,615.163 2320.617,632.413 2320.617,798.6 	"/>
	<line x1="2331.664" y1="702.424" x2="2331.664" y2="574.26"/>
</g>
<g id="209bowery">
	<polygon points="2320.617,632.413 2082.688,610.271 2082.688,605.021 2045.734,601.424 
		2045.734,675.643 2169.574,687.893 2169.535,700.506 2284.664,712.029 2284.664,811.74 2320.617,798.6 	"/>
	<line x1="2302.816" y1="724.639" x2="2302.816" y2="622.342"/>
</g>
<g id="211bowery">
	<polygon points="2284.664,712.029 2169.535,700.506 2169.5,713.35 2259.52,721.217 
		2259.52,820.928 2284.664,811.74 	"/>
	<line x1="2272.906" y1="769.404" x2="2272.906" y2="702.424"/>
</g>
<g id="213bowery">
	<polygon points="2259.52,820.928 2229.863,831.775 2169.203,825.607 2169.5,713.35 
		2259.52,721.217 	"/>
	<line x1="2241.41" y1="772.561" x2="2241.41" y2="713.35"/>
</g>
<g id="215bowery">
	<polygon points="2169.133,854.041 2169.574,687.893 2045.734,675.643 2045.734,701.202 
		2145.648,710.357 2145.395,863.166 	"/>
	<line x1="2159.641" y1="772.561" x2="2159.641" y2="675.643"/>
</g>
<g id="217bowery">
	<polygon points="2145.648,710.357 2145.395,863.166 2113.871,875.287 2113.871,709.092 
		2045.734,702.424 2045.734,701.202 	"/>
	<line x1="2128.656" y1="793.936" x2="2128.656" y2="702.424"/>
</g>
<g id="219bowery">
	<polygon points="2113.871,875.287 2113.871,709.092 2045.734,702.424 2045.734,792.545 
		2064.707,794.428 2064.809,894.154 	"/>
	<line x1="2095.691" y1="806.119" x2="2095.691" y2="700.506"/>
</g>
<g id="225bowery">
	<polygon points="2045.734,901.482 2045.734,569.104 1847.84,550.905 1842.129,552.78 
		1829.613,551.627 1829.613,544.92 1812.32,543.334 1812.32,567.928 1825.031,569.178 1825.031,646.346 1834.406,647.268 
		1834.406,721.666 1844.406,722.646 1844.406,734.924 1935.723,744.357 1935.723,747.803 1996.773,754.104 1996.816,920.291 	"/>
	<line x1="2025.016" y1="760.717" x2="2025.016" y2="552.893"/>
</g>
<g id="223bowery">
	<polygon points="2064.809,794.436 2064.809,894.154 2045.734,901.482 2045.734,792.545 	"/>
	<line x1="2055.273" y1="850.471" x2="2055.273" y2="787.955"/>
</g>
<g id="227bowery">
	<polygon points="1996.773,754.104 1996.816,920.291 1961.953,933.693 1961.953,833.986 
		1935.723,831.131 1935.723,747.803 	"/>
	<line x1="1982.281" y1="844.795" x2="1982.281" y2="743.084"/>
</g>
<g id="229bowery">
	<polygon points="1961.953,833.986 1961.953,933.693 1935.723,943.779 1935.723,831.131 	"/>
	<line x1="1948.836" y1="887.451" x2="1948.836" y2="820.928"/>
</g>
<g id="231bowery">
	<polygon points="1935.723,744.357 1935.723,943.779 1877.906,966.014 1871.801,965.404 
		1871.801,929.248 1882.816,925.029 1882.816,856.057 1864.586,854.264 1864.586,788.217 1844.406,786.232 1844.406,734.924 	"/>
	<line x1="1909.613" y1="850.471" x2="1909.613" y2="731.811"/>
</g>
<g id="235bowery">
	<polygon points="1864.586,854.264 1864.586,788.217 1844.406,786.232 1844.406,722.646 
		1834.406,721.666 1834.406,647.268 1825.031,646.346 1825.031,569.178 1812.32,567.928 1812.32,467.389 1679.105,454.295 
		1609.434,475.655 1609.434,571.577 1590.863,577.268 1590.863,653.311 1577.035,657.557 1577.035,736.74 1586.695,737.686 
		1586.695,762.033 1603.961,770.588 1603.961,827.385 1763.961,843.424 1763.961,894.021 1794.531,897.635 1794.531,994.982 
		1871.801,965.404 1871.801,929.248 1882.816,925.029 1882.816,856.057 1877.906,855.572 1877.832,855.533 	"/>
	<line x1="1812.32" y1="820.928" x2="1749.352" y2="440.709"/>
</g>
<g id="241bowery">
	<polygon points="1794.531,997.346 1794.594,957.365 1794.531,897.635 1763.961,894.021 
		1763.961,1009.611 	"/>
	<line x1="1779.277" y1="951.818" x2="1779.277" y2="887.451"/>
</g>
<g id="243bowery">
	<polygon points="1735.023,954.74 1603.961,942.107 1603.961,827.385 1763.961,843.424 
		1763.961,1009.611 1735.023,1021.213 	"/>
	<line x1="1749.352" y1="928.998" x2="1749.352" y2="831.775"/>
</g>
<g id="245bowery">
	<polygon points="1709.109,1031.607 1603.961,1021.189 1603.961,942.107 1735.023,954.74 
		1735.023,1021.213 	"/>
	<line  x1="1722.637" y1="986.857" x2="1722.637" y2="943.779"/>
</g>
<g id="2stanton">
	<polygon points="1603.961,1072.076 1603.961,770.588 1549.027,743.365 1423.352,730.955 
		1411.469,734.584 980.462,692.021 964.72,696.823 934.555,693.842 890.759,707.209 890.759,893.037 1155.602,919.303 
		1155.602,958.963 1177.25,952.244 1194.984,953.971 1194.984,940.607 1227.177,930.607 1242.352,932.084 1275.188,921.893 
		1275.188,885.295 1304.055,875.553 1477.907,891.857 1477.907,942.662 1503.148,945.369 1503.148,960.092 1529.965,962.686 
		1529.965,1094.67 	"/>
	<line x1="1571.98" y1="933.693" x2="1571.98" y2="755.904"/>
</g>
<g id="255bowery">
	<polygon points="1529.965,962.686 1503.148,960.092 1503.148,1111.553 1529.965,1101.357 	"/>
	<line x1="1516.555" y1="1021.213" x2="1516.555" y2="952.244"/>
</g>
<g id="257bowery">
	<polygon points="1503.148,945.369 1477.907,942.662 1477.907,1121.158 1503.148,1111.553 	"/>
	<line x1="1490.527" y1="1038.076" x2="1490.527" y2="933.693"/>
</g>
<g id="259bowery">
	<polygon fill="#2E2D2C" points="1477.907,1121.158 1477.907,891.857 1304.055,875.553 1275.188,885.295 
		1275.188,961.76 1421.512,976.412 1421.512,1029.639 1449.133,1032.385 1449.133,1132.1 	"/>
	<line x1="1464.066" y1="1003.83" x2="1464.066" y2="880.916"/>
</g>
<g id="261bowery">
	<polygon points="1449.133,1032.385 1421.512,1029.639 1421.512,1142.6 1449.133,1132.1 	"/>
	<line x1="1435.329" y1="1086.119" x2="1435.329" y2="1021.213"/>
</g>
<g id="263bowery">
	<polygon points="1421.512,976.412 1177.25,952.244 1143.458,962.732 1143.458,983.514 
		1157.833,979.049 1363.446,998.494 1363.446,1081.174 1392.793,1084.084 1392.793,1153.529 1421.512,1142.6 	"/>
	<line x1="1407.441" y1="1062.557" x2="1407.441" y2="960.092"/>
</g>
<g id="265bowery">
	<polygon points="1392.793,1084.084 1363.446,1081.174 1363.352,1164.713 1392.793,1153.529 	"/>
	<line x1="1378.071" y1="1121.158" x2="1378.071" y2="1077.357"/>
</g>
<g id="267bowery">
	<polygon points="1363.352,1164.713 1363.446,998.494 1157.833,979.049 1140.516,984.428 
		1260.54,996.705 1260.54,1002.482 1334.563,1009.479 1334.563,1175.666 	"/>
	<line id="line12140" fill="none" x1="1347.602" y1="1081.174" x2="1347.602" y2="994.982"/>
</g>
<g id="269bowery">
	<polygon points="1334.563,1175.666 1333.571,1176.24 1333.571,1159.443 1306.368,1156.803 
		1300.071,1156.779 1260.54,1152.654 1260.54,1002.482 1334.563,1009.479 	"/>
	
		<line x1="1319.305" y1="1089.357" x2="1319.305" y2="1002.482"/>
</g>
<g id="Layer_5">
	<polygon points="1260.54,1195.326 1300.688,1199.225 1333.571,1189.029 1333.571,1159.443 
		1306.368,1156.803 1300.071,1156.779 1260.54,1152.654 	"/>
</g>
<g id="273bowery">
	<polygon points="290.333,1144.428 290.333,679.104 573.398,595.667 719.915,610.198 
		719.915,689.042 731.462,690.221 731.462,877.24 1155.602,919.303 1155.602,958.963 1143.458,962.732 1143.458,983.514 
		1140.516,984.428 1260.54,996.705 1260.54,1196.131 1162.657,1233.658 	"/>
	<line x1="800.782" y1="1102.502" x2="800.782" y2="863.166"/>
</g>
<g id="187bowery">
	<polygon points="2654.992,676.366 2654.992,510.178 2479.246,492.733 2458.805,499.221 
		2458.805,516.342 2494.563,519.983 2494.563,525.116 2499.047,525.643 2499.047,564.432 2623.91,576.94 2623.91,687.725 	"/>
	<line x1="2638.324" y1="590.225" x2="2638.324" y2="492.733"/>
</g>
</svg>
