<svg version="1.1" xmlns="http://www.w3.org/2000/svg" xmlns:xlink="http://www.w3.org/1999/xlink" width="13331.756px" height="2200px" >
<g id="229chrystie">
	<polygon points="10724.963,1342.065 10724.963,2003.987 12586.982,2003.987 12586.982,1342.065 
		12569.814,1341.984 12569.814,459.512 10732.6,459.512 10732.6,1342.065"/>
	<line x1="11669.805" y1="1233.365" x2="11669.805" y2="462.742"/>
</g>
<g id="205chrystie">
	<rect x="8113.713" y="1074.268" width="321.8" height="929.72"/>
	<line x1="8274.611" y1="1539.128" x2="8274.611" y2="1074.672"/>
</g>
<g id="203chrystie">
	<rect x="7945.549" y="1074.268" width="168.164" height="929.72"/>
	<line x1="8029.629" y1="1537.174" x2="8029.629" y2="1074.674"/>
</g>
<g id="201chrystie">
	<polygon points="7703.068,1499.521 7703.068,2002.957 7945.623,2002.893 7945.623,1499.521"/>
	<line x1="7824.344" y1="1751.242" x2="7824.344" y2="1499.521"/>
</g>
<g id="199chrystie">
	<polygon points="7504.057,1398.391 7504.057,2002.766 7704.256,2002.83 7704.256,1398.391"/>
	<line x1="7604.156" y1="1700.61" x2="7604.156" y2="1398.391"/>
</g>
<g id="195chrystie">
	<rect x="7029.306" y="635.936" width="474.75" height="1366.83"/>
	<line x1="7266.681" y1="1295.941" x2="7266.681" y2="635.936"/>
</g>
<g id="191chrystie">
	<polygon points="7031.257,2003.987 7029.935,989.435 6597.716,988.493 6597.716,2003.987"/>
	<line x1="6814.487" y1="1480.215" x2="6814.487" y2="988.965"/>
</g>
<g id="189chrystie">
	<polygon points="6596.392,1411.728 6597.512,2003.48 6353.36,2003.48 6353.36,1412.506"/>
	<line x1="6475.436" y1="1701.222" x2="6475.436" y2="1412.113"/>
</g>
<g id="187chrystie">
	<rect x="6111.8" y="1072.062" width="241.56" height="931.419"/>
	<line x1="6232.58" y1="1536.918" x2="6232.58" y2="1072.062"/>
</g>
<g id="183chrystie" transform="translate(-5.0335667,10.067133)">
	<polygon points="6116.833,1993.413 5626.833,1993.413 5626.833,1527.081 6115.051,1527.265 "/>
	<line x1="5871.833" y1="1741.851" x2="5871.833" y2="1527.081"/>
</g>
<g id="181chrystie">
	<rect x="5440.737" y="1186.612" width="181.063" height="816.868"/>
	<line x1="5531.272" y1="1595.045" x2="5531.272" y2="1186.612"/>
</g>
<g id="179chrystie">
	<polygon points="5440.737,1567.416 5440.737,2004.225 4747.976,2005.022 4747.976,1567.608"/>
	<line x1="5094.358" y1="1786.219" x2="5094.358" y2="1567.513"/>
</g>
<g id="177chrystie">
	<rect x="3421.433" y="1094.951" width="855.134" height="909.036"/>
     <line x1="3848.999" y1="1549.468" x2="3848.999" y2="1094.951"/>
</g>
<g id="175chrystie">
	<polygon points="3197.246,2003.923 3421.433,2003.987 3421.433,1549.396 3197.246,1549.396 "/>
	<line x1="3309.339" y1="1776.693" x2="3309.339" y2="1549.472"/>
</g>
<g id="173chrystie">
	<rect x="3029.241" y="1549.396" width="168.004" height="454.526"/>
	<line x1="3113.242" y1="1776.692" x2="3113.242" y2="1549.471"/>
</g>
<g id="169chrystie">
	<polygon points="2681.487,2004.198 3027.856,2003.717 3027.757,1618.586 2681.487,1620.252 "/>
	<line x1="2854.673" y1="1811.391" x2="2854.673" y2="1618.586"/>
</g>
<g id="165chrystie">
	<polygon points="2681.487,1542.672 2681.487,2004.198 2449.899,2003.781 2449.899,1542.672"/>
	<line x1="2565.693" y1="1779.267" x2="2565.693" y2="1542.672"/>
</g>
<g id="163chrystie">
	<rect x="2210.586" y="1395.392" width="239.312" height="608.69"/>
	<line x1="2330.242" y1="1699.737" x2="2330.242" y2="1395.392"/>
</g>
<g id="159chrystie">
	<rect x="1993.788" y="1061.386" width="216.798" height="942.696"/>
	<line x1="2102.185" y1="1595.344" x2="2102.185" y2="1061.386"/>
</g>
<g id="157chrystie">
	<rect x="1747.147" y="1395.186" width="246.64" height="609.09"/>
	<line x1="1870.466" y1="1728.425" x2="1870.466" y2="1395.186"/>
</g>
<g id="155chrystie">
	<rect x="1039.99" y="1114.806" width="707.157" height="889.47"/>
	<line x1="1393.568" y1="1663.258" x2="1393.568" y2="1114.806"/>
</g>
<g id="18delancey">
	<rect x="609.676" y="1371.763" width="430.315" height="632.513"/>
	<line x1="824.833" y1="1752.339" x2="824.833" y2="1371.763"/>
</g>
</svg>
