<svg version="1.1" xmlns="http://www.w3.org/2000/svg" xmlns:xlink="http://www.w3.org/1999/xlink" x="0px" y="0px" width="2000px"
	 height="1500px" >
<g id="block3_1_">
	<g id="block3">
		<polygon points="494.309,557.256 494.309,538.971 512.269,525.807 512.269,513.617 534.575,497.271 
			535.452,497.847 558.259,481.131 558.259,467.721 579.785,451.943 597.753,463.158 636.264,434.933 644.45,439.417 
			651.634,434.207 660.697,439.44 667.958,434.006 684.99,443.334 684.99,450.18 718.492,425.641 734.242,436.04 734.242,466.43 
			753.472,452.007 798.85,480.937 798.85,544.006 835.265,518.322 851.224,527.538 851.224,534.377 870.929,545.168 
			870.929,559.796 900.966,576.249 900.966,598.19 896.795,601.247 881.784,591.792 831.677,628.818 831.677,648.971 
			739.005,716.893 		"/>
		<line x1="691.638" y1="579.785" x2="691.638" y2="463.195"/>
	</g>
</g>
<g id="block2_1_">
	<g id="block2">
		<polygon points="772.15,736.193 772.164,707.379 825.053,668.272 831.677,672.559 831.677,628.818 
			881.784,591.792 901.591,604.118 934.443,579.785 948.207,587.03 948.17,590.004 964.169,598.426 966.404,596.734 
			978.322,603.006 1005.92,580.959 1034.295,595.894 1034.295,632.464 1054.514,643.108 1054.514,654.8 1069.729,643.801 
			1071.818,645.008 1071.818,632.397 1102.844,608.98 1136.701,626.845 1136.701,645.172 1143.146,648.573 1143.146,683.965 
			1138.453,687.507 1138.453,689.563 1143.146,692.271 1143.053,700.949 1152.855,706.127 1152.855,709.902 1157.301,712.164 
			1168.988,703.491 1186.576,712.451 1186.576,734.393 1196.664,739.532 1184.486,748.691 1184.486,755.799 1089.121,827.781 
			1089.094,844.383 1019.705,895.66 957.378,855.426 956.839,855.824 		"/>
		<line x1="966.138" y1="737.722" x2="966.138" y2="628.196"/>
	</g>
</g>
<g id="block1_1_">
	<g id="block1">
		<polygon points="1089.094,903.896 1108.652,916.334 1115.441,911.227 1122.07,915.443 1223.91,838.846 
			1223.91,829.564 1234.908,821.289 1250.891,821.209 1255.365,824.057 1255.365,851.879 1279.625,867.084 1279.625,872.471 
			1251.297,893.693 1209.641,866.389 1175.309,892.113 1175.309,994.51 1296.725,1074.109 1505.691,921.693 1505.691,877.809 
			1449.1,847.955 1435.787,857.668 1435.787,843.395 1403.086,826.035 1386.85,838.705 1386.275,838.402 1386.275,817.111 
			1369.824,808.377 1358.271,816.871 1354.004,814.609 1354.004,786.09 1337.521,777.338 1326.555,785.406 1323.057,783.549 
			1318.137,786.992 1307.697,781.449 1302.65,785.301 1302.65,747.78 1263.377,722.81 1213.84,726.614 1184.486,748.691 
			1184.486,755.799 1089.121,827.781 		"/>
		<line x1="1297.393" y1="908.695" x2="1297.393" y2="802.195"/>
	</g>
</g>
</svg>
