<svg version="1.1" xmlns="http://www.w3.org/2000/svg" xmlns:xlink="http://www.w3.org/1999/xlink" x="0px" y="0px" width="2000px"
	 height="1500px">
<g id="block3">
	<polygon points="1098.424,966.021 1363.611,1111.645 1505.535,1007.629 
		1505.566,989.32 1476.84,970.58 1476.84,929.912 1429.631,899.113 1416.545,909.18 1412.971,907.117 1413.164,884.83 
		1398.705,875.396 1375.498,892.199 1367.256,886.82 1363.52,889.494 1344.041,876.785 1344.039,872.088 1317.857,855.008 
		1317.857,824.877 1260.871,787.699 1170.732,853.766 1170.732,877.463 1139.088,900.654 1139.088,915.281 1098.91,944.729 	"/>
	<line x1="1289.234" y1="985.885" x2="1289.234" y2="861.385"/>
</g>
<g id="block2">
	<polygon points="1012.898,628.649 980.233,607.518 863.747,693.596 
		863.747,717.086 863.174,718.079 863.174,735.174 856.729,740.038 856.729,751.428 852.82,748.932 813.298,779.271 
		813.298,781.377 797.547,793.188 797.547,807.818 849.479,834.271 850.628,833.408 896.614,857.697 896.614,859.527 
		993.957,910.762 1065.521,948.428 1168.197,872.553 1168.197,863.328 1170.732,864.967 1170.732,853.766 1227.719,812 
		1227.711,799.621 1181.297,769.588 1181.297,744.309 1169.166,736.458 1152.857,749.148 1136.328,738.452 1136.328,707.617 
		1120.121,697.129 1103.979,709.223 1103.762,709.086 1103.762,681.084 1074.84,662.371 1074.84,638.917 1043.037,618.337 
		1012.898,641.148 	"/>
	<line x1="1012.635" y1="828.385" x2="1012.635" y2="684.385"/>
</g>
<g id="block1">
	<polygon points="703.154,388.355 617.996,450.467 617.996,508.979 
		494.184,599.284 494.184,643.17 546.696,670.87 542.859,673.796 542.859,680.306 557.811,689.688 563.96,684.995 692.179,752.898 
		697.227,749.049 697.227,750.738 736.499,775.709 786.035,771.904 815.391,749.828 815.391,742.462 863.747,706.092 
		863.747,693.596 910.757,658.86 910.783,594.622 891.226,582.184 884.435,587.29 877.808,583.076 775.969,659.67 775.969,668.954 
		764.969,677.229 748.985,677.309 726.047,662.722 724.511,663.877 720.251,661.208 720.251,656.341 714.557,652.774 
		824.566,570.351 824.566,467.952 	"/>
	<line x1="702.485" y1="607.518" x2="702.485" y2="435.385"/>
</g>
</svg>
