<svg version="1.1" xmlns="http://www.w3.org/2000/svg" xmlns:xlink="http://www.w3.org/1999/xlink" width="4000px" height="1500px">
<g id="229chrystie">
	<polygon points="2845.412,1019.42 2845.412,554.097 2929.096,528.65 3097.635,545.894 
		3013.951,571.334 3013.951,1037.295"/>
	<line x1="2925.99" y1="806.854" x2="2925.99" y2="541.732"/>
</g>
<g id="18delancey">
	<polygon points="204.311,655.057 273.799,662.167 273.799,762.779 160.213,751.217 
		160.213,668.124"/>
	<line x1="217.006" y1="718.483" x2="217.006" y2="655.057"/>
</g>
<g id="93houston">
	<polygon points="3013.951,1037.295 3325.92,1068.572 3839.787,917.092 3839.787,717.67 
		3623.666,700.674 3535.326,726.713 3535.326,541.521 3389.928,526.65 3266.17,563.131 3097.635,545.894 3013.951,571.334"/>
	<line x1="3173.119" y1="856.85" x2="3173.119" y2="562.545"/>
</g>
<g id="155chrystie">
	<polygon points="273.799,762.779 273.764,494.858 344.545,472.67 530.17,492.045 530,502.5 525.58,504.404 525.58,578.002 
		460.471,598.409 460.471,781.764"/>
	<line x1="395.818" y1="695.686" x2="395.818" y2="490.874"/>
</g>
<g id="157chrystie">
	<polygon points="460.471,781.764 460.471,598.409 525.58,577.991 525.58,788.389"/>
	<line x1="493.025" y1="718.483" x2="493.025" y2="588.233"/>
</g>
<g id="159chrystie">
	<polygon points="525.58,788.389 525.58,504.404 656.857,465.999 713.236,472.081 713.236,572.706 
		582.756,610.842 582.756,794.201"/>
	<line x1="551.162" y1="695.686" x2="551.162" y2="500.756"/>
</g>
<g id="163chrystie">
	<polygon points="582.756,794.201 582.756,610.842 748.67,562.545 815.404,568.241 
		815.404,617.944 802.467,616.514 645.982,661.803 645.982,800.639"/>
	<line x1="619.404" y1="735.631" x2="619.404" y2="601.733"/>
</g>
<g id="165chrystie">
	<polygon points="645.982,800.639 645.982,661.803 802.467,616.514 860.014,622.874 
		860.014,665.967 811.264,661.217 707.115,691.245 707.115,806.854"/>
	<line x1="679.662" y1="745.854" x2="679.662" y2="647.479"/>
</g>
<g id="169chrystie">
	<polygon points="707.115,806.854 707.115,691.245 811.264,661.217 889.904,668.874 
		884.838,670.444 845.658,666.635 798.92,679.237 798.92,816.193"/>
	<line x1="752.998" y1="767.646" x2="752.998" y2="681.592"/>
</g>
<g id="173chrystie">
	<polygon points="798.92,816.193 798.92,679.237 845.658,666.635 884.838,670.444 843.264,683.745 
		843.264,820.701"/>
	<line x1="815.404" y1="752.182" x2="815.404" y2="674.292"/>
</g>
<g id="175chrystie">
	<polygon points="843.264,820.701 843.264,683.745 902.443,664.979 902.443,826.725"/>
	<line x1="872.857" y1="781.764" x2="872.857" y2="670.444"/>
</g>
<g id="177chrystie">
	<polygon points="902.443,826.725 902.443,552.851 939.732,541.732 1164.623,564.854 
		1164.623,838.725 1127.783,849.646"/>
	<line x1="1008.334" y1="725.838" x2="1008.334" y2="550.084"/>
</g>
<g id="179chrystie">
	<polygon points="1256.467,861.1 1256.498,729.702 1386.01,690.854 1439.779,696.28 
		1439.779,879.658"/>
	<line x1="1348.131" y1="816.193" x2="1348.131" y2="725.838"/>
</g>
<g id="181chrystie">
	<polygon points="1439.779,879.658 1439.779,633.405 1564.904,594.202 1611.459,598.896 
		1611.459,704.51 1487.689,743.842 1487.689,884.49"/>
	<line x1="1463.037" y1="806.854" x2="1463.037" y2="630.1"/>
</g>
<g id="183chrystie">
	<polygon points="1487.689,884.49 1487.689,743.842 1611.459,704.51 1617.35,705.1 
		1617.35,897.553"/>
	<line x1="1542.115" y1="839.658" x2="1542.115" y2="738.706"/>
</g>
<g id="187chrystie">
	<polygon points="1617.35,897.553 1617.35,616.78 1710.998,588.233 1775.17,594.702 
		1775.17,596.077 1745.92,604.92 1745.92,706.021 1681.334,725.659 1681.334,903.998"/>
	<line x1="1650.842" y1="808.264" x2="1650.842" y2="601.733"/>
</g>
<g id="189chrystie">
	<polygon points="1681.334,903.998 1681.334,725.659 1745.92,706.021 1745.92,910.514 	"/>
	<line x1="1713.627" y1="839.658" x2="1713.627" y2="711.686"/>
</g>
<g id="191chrystie">
	<polygon points="1745.92,910.514 1745.92,604.92 1860.123,570.385 1860.123,922.014 	"/>
	<line x1="1803.021" y1="800.639" x2="1803.021" y2="601.733"/>
</g>
<g id="199chrystie">
	<polygon points="1986.99,752.139 1987.01,934.275 2040.033,939.619 2040.033,787.857 
		2103.881,767.646 2103.881,716.206"/>
	<line x1="2011.646" y1="856.85" x2="2011.646" y2="745.854"/>
</g>
<g id="195chrystie">
	<polygon points="1860.123,922.014 1860.123,509.851 1967.076,476.624 2009.42,480.756 
		2009.42,463.549 2129.018,431.428 2243.998,443.02 2243.998,642.987 2228.393,647.495 2181.049,643.413 2103.881,666.092 
		2103.881,716.206 1985.697,752.533 1985.697,934.67"/>
	<line x1="1912.795" y1="794.201" x2="1912.795" y2="500.756"/>
</g>
<g id="201chrystie">
	<polygon points="2040.033,787.857 2040.033,939.619 2103.881,946.053 2103.881,767.646"/>
	<line x1="2071.959" y1="897.553" x2="2071.959" y2="781.764"/>
</g>
<g id="203chrystie">
	<polygon points="2103.881,665.948 2181.049,643.413 2228.393,647.495 2148.381,670.428 
		2148.381,950.537 2103.881,946.053"/>
	<line x1="2130.256" y1="816.193" x2="2130.256" y2="655.057"/>
</g>
<g id="205chrystie">
	<polygon points="2148.381,950.537 2148.381,670.428 2255.826,639.581 2255.826,624.155 
		2288.232,613.342 2412.24,625.264 2412.24,905.373 2232.85,959.041 "/>
	<line x1="2192.041" y1="808.264" x2="2192.041" y2="643.413"/>
</g>
</svg>
