<?xml version="1.0" encoding="utf-8"?>
<!-- Generator: Adobe Illustrator 16.0.0, SVG Export Plug-In . SVG Version: 6.00 Build 0)  -->
<!DOCTYPE svg PUBLIC "-//W3C//DTD SVG 1.1//EN" "http://www.w3.org/Graphics/SVG/1.1/DTD/svg11.dtd">
<svg version="1.1" id="Layer_1" xmlns="http://www.w3.org/2000/svg" xmlns:xlink="http://www.w3.org/1999/xlink" x="0px" y="0px"
	 width="255.768px" height="117.179px" viewBox="0 0 255.768 117.179" enable-background="new 0 0 255.768 117.179"
	 xml:space="preserve">
<path stroke="#FFFFFF" stroke-width="0.5" stroke-miterlimit="10" d="M230.518,86.449c0,2.096,23.984,30.533,23.984,30.533
	l-34.984-27.738c0,0-52,24.863-128.999,14.379c-77-10.484-153-80.088-9-98.215C235.051-13.92,255.518,25.217,255.518,54.287
	C255.518,84.342,230.518,86.449,230.518,86.449z"/>
<g>
	<path fill="#FCFCFC" d="M78.519,47.43V29.336h2.719c1.211,0,2.176,0.094,2.895,0.281c0.727,0.188,1.34,0.504,1.84,0.949
		c0.508,0.461,0.91,1.035,1.207,1.723c0.305,0.695,0.457,1.398,0.457,2.109c0,1.297-0.496,2.395-1.488,3.293
		c0.961,0.328,1.719,0.902,2.273,1.723c0.562,0.812,0.844,1.758,0.844,2.836c0,1.414-0.5,2.609-1.5,3.586
		c-0.602,0.602-1.277,1.02-2.027,1.254c-0.82,0.227-1.848,0.34-3.082,0.34H78.519z M81.249,37.105h0.855
		c1.016,0,1.76-0.225,2.232-0.674s0.709-1.111,0.709-1.986c0-0.852-0.242-1.498-0.727-1.939s-1.188-0.662-2.109-0.662h-0.961V37.105
		z M81.249,44.863h1.688c1.234,0,2.141-0.242,2.719-0.727c0.609-0.523,0.914-1.188,0.914-1.992c0-0.781-0.293-1.438-0.879-1.969
		c-0.57-0.523-1.59-0.785-3.059-0.785h-1.383V44.863z"/>
	<path fill="#FCFCFC" d="M91.667,38.301c0-2.547,0.934-4.734,2.801-6.562c1.859-1.828,4.094-2.742,6.703-2.742
		c2.578,0,4.789,0.922,6.633,2.766c1.852,1.844,2.777,4.059,2.777,6.645c0,2.602-0.93,4.809-2.789,6.621
		c-1.867,1.82-4.121,2.73-6.762,2.73c-2.336,0-4.434-0.809-6.293-2.426C92.69,43.543,91.667,41.199,91.667,38.301z M94.421,38.33
		c0,1.998,0.672,3.642,2.016,4.93c1.336,1.288,2.879,1.932,4.629,1.932c1.898,0,3.5-0.655,4.805-1.967
		c1.305-1.327,1.957-2.943,1.957-4.848c0-1.928-0.645-3.544-1.934-4.848c-1.281-1.312-2.867-1.967-4.758-1.967
		c-1.883,0-3.473,0.655-4.77,1.967C95.069,34.825,94.421,36.426,94.421,38.33z"/>
	<path fill="#FCFCFC" d="M114.132,29.336l4.711,12.094l4.922-12.973l4.711,12.973l5.004-12.094h2.965l-8.086,19.242l-4.652-12.82
		l-4.852,12.832l-7.688-19.254H114.132z"/>
	<path fill="#FCFCFC" d="M148.679,31.902h-7.254v4.348h7.043v2.566h-7.043v6.047h7.254v2.566h-9.984V29.336h9.984V31.902z"/>
	<path fill="#FCFCFC" d="M158.394,39.719l5.602,7.711h-3.34l-5.168-7.406h-0.492v7.406h-2.73V29.336h3.199
		c2.391,0,4.117,0.449,5.18,1.348c1.172,1,1.758,2.32,1.758,3.961c0,1.281-0.367,2.383-1.102,3.305S159.597,39.461,158.394,39.719z
		 M154.995,37.645h0.867c2.586,0,3.879-0.988,3.879-2.965c0-1.852-1.258-2.777-3.773-2.777h-0.973V37.645z"/>
	<path fill="#FCFCFC" d="M169.573,39.613l-5.906-10.277h3.141l4.137,7.23l4.148-7.23h3.141l-5.93,10.277v7.816h-2.73V39.613z"/>
	<path fill="#FCFCFC" d="M57.782,76.229l3.809-19.453l6.211,14.062l6.434-14.062l3.422,19.453h-2.801L73.11,65.308l-5.355,11.754
		l-5.203-11.766l-1.945,10.934H57.782z"/>
	<path fill="#FCFCFC" d="M80.587,67.101c0-2.547,0.934-4.734,2.801-6.562c1.859-1.828,4.094-2.742,6.703-2.742
		c2.578,0,4.789,0.922,6.633,2.765c1.852,1.844,2.777,4.059,2.777,6.645c0,2.602-0.93,4.809-2.789,6.621
		c-1.867,1.82-4.121,2.73-6.762,2.73c-2.336,0-4.434-0.809-6.293-2.426C81.61,72.343,80.587,69.999,80.587,67.101z M83.341,67.13
		c0,1.998,0.672,3.641,2.016,4.93c1.336,1.287,2.879,1.932,4.629,1.932c1.898,0,3.5-0.656,4.805-1.967
		c1.305-1.328,1.957-2.943,1.957-4.848c0-1.928-0.645-3.545-1.934-4.848c-1.281-1.312-2.867-1.967-4.758-1.967
		c-1.883,0-3.473,0.654-4.77,1.967C83.989,63.624,83.341,65.226,83.341,67.13z"/>
	<path fill="#FCFCFC" d="M103.052,58.136l5.004,12.539l5.074-12.539h2.988l-8.121,19.453l-7.934-19.453H103.052z"/>
	<path fill="#FCFCFC" d="M128.353,60.702h-7.254v4.348h7.043v2.566h-7.043v6.047h7.254v2.566h-9.984V58.136h9.984V60.702z"/>
	<path fill="#FCFCFC" d="M131.306,76.229l3.809-19.453l6.211,14.062l6.434-14.062l3.422,19.453h-2.801l-1.746-10.922l-5.355,11.754
		l-5.203-11.766l-1.945,10.934H131.306z"/>
	<path fill="#FCFCFC" d="M164.997,60.702h-7.254v4.348h7.043v2.566h-7.043v6.047h7.254v2.566h-9.984V58.136h9.984V60.702z"/>
	<path fill="#FCFCFC" d="M168.583,76.229V56.906l13.195,13.804V58.136h2.73v19.195l-13.195-13.77v12.668H168.583z"/>
	<path fill="#FCFCFC" d="M193.837,60.702v15.527h-2.73V60.702h-4.16v-2.566h11.039v2.566H193.837z"/>
</g>
</svg>
